<svg xmlns="http://www.w3.org/2000/svg" xmlns:xlink="http://www.w3.org/1999/xlink" version="1.1" x="0px" y="0px" viewBox="0 0 32 40" style="enable-background:new 0 0 32 32;" xml:space="preserve"><g><path d="M23,10H9c-0.552,0-1-0.448-1-1s0.448-1,1-1h14c0.553,0,1,0.448,1,1S23.553,10,23,10z"/><path d="M17,18H9c-0.552,0-1-0.447-1-1c0-0.552,0.448-1,1-1h8c0.553,0,1,0.448,1,1C18,17.553,17.553,18,17,18z"/><path d="M23,14H9c-0.552,0-1-0.448-1-1s0.448-1,1-1h14c0.553,0,1,0.448,1,1S23.553,14,23,14z"/><path d="M7,32c-0.167,0-0.335-0.042-0.487-0.127c-0.361-0.201-0.561-0.604-0.502-1.015l0.914-6.395C2.694,22.205,0,17.778,0,12.984   C0,5.808,5.839-0.031,13.016-0.031h5.969C26.161-0.031,32,5.808,32,12.984S26.161,26,18.984,26h-4.422L7.64,31.769   C7.457,31.922,7.229,32,7,32z M13.016,1.969C6.941,1.969,2,6.91,2,12.984c0,4.267,2.526,8.191,6.435,9.999   c0.401,0.185,0.633,0.611,0.57,1.049l-0.647,4.535l5.202-4.336C13.74,24.082,13.966,24,14.2,24h4.784   C25.059,24,30,19.059,30,12.984S25.059,1.969,18.984,1.969H13.016z"/></g><text x="0" y="47" fill="#000000" font-size="5px" font-weight="bold" font-family="'Helvetica Neue', Helvetica, Arial-Unicode, Arial, Sans-serif">Created by ✦ Shmidt Sergey ✦</text><text x="0" y="52" fill="#000000" font-size="5px" font-weight="bold" font-family="'Helvetica Neue', Helvetica, Arial-Unicode, Arial, Sans-serif">from the Noun Project</text></svg>