<svg xmlns="http://www.w3.org/2000/svg" viewBox="0 0 100 125" x="0px" y="0px"> <path d="M23.13,33.1a4,4,0,0,0-4,4V81.24a11,11,0,0,0,11,11H69.88a11,11,0,0,0,11-11V37.1a4,4,0,0,0-8,0V81.24a3,3,0,0,1-3,3H30.13a3,3,0,0,1-3-3V37.1A4,4,0,0,0,23.13,33.1Z" /> <path d="M87,20.55H68.17V14.76a7,7,0,0,0-7-7H38.83a7,7,0,0,0-7,7v5.79H13a4,4,0,0,0,0,8H87a4,4,0,0,0,0-8ZM39.83,15.76H60.17v4.79H39.83Z" /> <path d="M54,75V47.1a4,4,0,0,0-8,0V75a4,4,0,0,0,8,0Z" /> <path d="M65,75V47.1a4,4,0,0,0-8,0V75a4,4,0,0,0,8,0Z" /> <path d="M43,75V47.1a4,4,0,0,0-8,0V75a4,4,0,0,0,8,0Z" /> <text font-size="0px">Created by Rajive from the Noun Project</text> </svg>